<svg id="Layer_1" data-name="Layer 1" xmlns="http://www.w3.org/2000/svg" viewBox="0 0 1080 500"><defs><style>.cls-1{fill:none;stroke:#fff;stroke-miterlimit:10;stroke-width:15px;}.cls-2,.cls-3{fill:#fff;}.cls-3{font-size:108.33px;font-family:Poppins-SemiBold, Poppins;font-weight:600;}</style></defs><rect class="cls-1" x="333.92" y="176.97" width="414.84" height="242.2"/><path class="cls-2" d="M667.8,256c-5.59-13.63-16.86-25.33-31-29.29-7.12-2-14.63-2-22-2q-36.71,0-73.39,0v39.57c0,.14,54.55-.13,59.38-.15,3.44,0,6.94,0,10.23,1a16.83,16.83,0,0,1,11.52,13.18,15.76,15.76,0,0,1-7.43,15.7c-4.31,2.48-9.54,2.65-14.52,2.75L536,298c.35,0,.36.22.29.63l-43.95-88.38L410,385.92h46.41L494,304l18.23,43.57-24.63-1.9-18.94,40.26,109.39-3.32-20.92-42.07q.32.3.66.57c6.66,5.06,24.29,1.72,32.17,1.73l36.38.06a61.15,61.15,0,0,0,12-.78c9.36-1.88,17.45-8.19,22.84-16.06s8.33-17.2,10-26.6C673.77,284.94,673.39,269.61,667.8,256Z"/><text class="cls-3" transform="matrix(0.1, -0.99, 0.99, 0.1, 201.89, 431.53)">T</text><text class="cls-3" transform="translate(207.53 372.26) rotate(-74.02)">o</text><text class="cls-3" transform="translate(226.57 308.66) rotate(-65.5)">t</text><text class="cls-3" transform="translate(241.61 272.2) rotate(-56.57)">a</text><text class="cls-3" transform="translate(281.75 213.83) rotate(-48.5)">l</text><text class="cls-3" transform="matrix(0.72, -0.7, 0.7, 0.72, 300.8, 192.34)"> </text><text class="cls-3" transform="translate(316.76 174.9) rotate(-36.8)">P</text><text class="cls-3" transform="translate(366.56 137.02) rotate(-25.83)">o</text><text class="cls-3" transform="translate(424.66 106.93) rotate(-12.49)">w</text><text class="cls-3" transform="translate(510.19 88.79) rotate(0.96)">e</text><text class="cls-3" transform="translate(574.17 90.37) rotate(9.79)">r</text><text class="cls-3" transform="translate(615.42 97.86) rotate(15.6)"> </text><text class="cls-3" transform="translate(638.44 102.74) rotate(23.23)">S</text><text class="cls-3" transform="translate(696.22 127.06) rotate(34.28)">o</text><text class="cls-3" transform="matrix(0.74, 0.67, -0.67, 0.74, 750.55, 165.53)">l</text><text class="cls-3" transform="translate(772.17 182.96) rotate(50.22)">u</text><text class="cls-3" transform="matrix(0.51, 0.86, -0.86, 0.51, 815.47, 236.44)">t</text><text class="cls-3" transform="translate(836 271.07) rotate(64.63)">i</text><text class="cls-3" transform="translate(849.24 295.6) rotate(72.25)">o</text><text class="cls-3" transform="translate(869.7 358.24) rotate(82.96)">n</text></svg>